PathFileType	4	(X/Y/Z)	Patient4_TMGait_0pt7_01_left_33.trc.trc
DataRate	CameraRate	NumFrames	NumMarkers	Units	OrigDataRate	OrigDataStartFrame	OrigNumFrames
90.322580645161	90.322580645161	5	33	mm	90.322580645161	53	       141
Frame#	Time	Sacral			L.Shoulder			Chest			R.Shoulder			Neck			R.ASIS			L.ASIS			R.Thigh.Superior			R.Thigh.Lateral			R.Thigh.Inferior			R.Patella			L.Thigh.Superior			L.Thigh.Lateral			L.Thigh.Inferior			L.Patella			L.Shank.Superior			L.Shank.Lateral			L.Shank.Inferior			R.Shank.Superior			R.Shank.Lateral			R.Shank.Inferior			R.Heel			R.Midfoot.Superior			R.Midfoot.Lateral			R.Toe			L.Heel			L.Midfoot.Lateral			L.Midfoot.Superior			L.Toe			L.Elbow			L.Wrist			R.Elbow			R.Wrist			
		X1	Y1	Z1	X2	Y2	Z2	X3	Y3	Z3	X4	Y4	Z4	X5	Y5	Z5	X6	Y6	Z6	X7	Y7	Z7	X8	Y8	Z8	X9	Y9	Z9	X10	Y10	Z10	X11	Y11	Z11	X12	Y12	Z12	X13	Y13	Z13	X14	Y14	Z14	X15	Y15	Z15	X16	Y16	Z16	X17	Y17	Z17	X18	Y18	Z18	X19	Y19	Z19	X20	Y20	Z20	X21	Y21	Z21	X22	Y22	Z22	X23	Y23	Z23	X24	Y24	Z24	X25	Y25	Z25	X26	Y26	Z26	X27	Y27	Z27	X28	Y28	Z28	X29	Y29	Z29	X30	Y30	Z30	X31	Y31	Z31	X32	Y32	Z32	X33	Y33	Z33	

53	38.725714285714	778.483126548453	1020.719003215760	453.383131546934	1004.039148505258	1427.325288764075	269.247510073273	1091.456241182006	1352.855068929860	438.768524396722	1004.784592534700	1444.583862537938	602.858400788964	1007.118183295744	1492.989003652618	421.210186540731	992.896488716397	948.141056742576	587.236534423525	1000.305377005075	958.285402006493	312.818353161056	1071.366126370986	777.702798139390	557.748861317649	1028.505149319576	656.323502236422	627.383082069991	1119.641762241689	616.101399993316	550.538048375382	1135.079335663510	500.575817429697	572.022893659313	1041.832744506132	750.706139277895	340.801568695408	951.949003552745	639.108398244893	278.395022387673	1031.628382835454	559.042759945354	344.889573656135	1029.610073454343	489.982201319468	354.522975096250	1003.075762244678	418.876265989280	343.694968140994	914.524411238798	305.255644794994	289.766908557254	963.274937459438	193.667204267185	361.673280359143	1053.437397179813	429.524463062198	575.338888679253	926.225628476418	398.816878078896	629.093395545587	907.155910748762	291.172711687671	578.651274461183	704.381248589380	244.276537396685	539.380409158545	865.402664540716	171.665002597793	585.890851504023	754.245619728166	177.773635195377	613.482310419898	921.177174981491	55.027662344030	613.140662526351	834.856124064505	37.686054156700	402.215094641887	907.788531475232	35.514539685336	319.962189803041	990.665612236326	96.282988574347	347.242872251675	1119.379439212456	45.281691812141	316.211076392637	967.827240144204	1087.532552638724	132.996449206060	1100.553139722393	861.447761963668	150.032120516354	932.025278751336	1110.186170315581	735.305734151959	1119.438425551062	933.683232532300	721.384712442325	
54	38.736785714286	777.876732248423	1020.883329665907	451.848528203810	1006.220944958467	1427.739415822165	269.462823700459	1091.893219832055	1352.625574994925	439.628191243180	1003.872163759200	1444.118525231052	603.053524541832	1008.037093920366	1493.008443130052	421.568275986780	991.938459699133	948.858839518621	586.818829259587	1000.691705106887	958.654988628008	312.227490779239	1073.282528803907	781.832765536933	556.923978324183	1033.624700468842	659.776576642233	627.278797044668	1125.529741619624	621.479899855696	550.421409037173	1144.068643788316	506.524246312883	572.159206226163	1040.071157144028	749.673965068282	340.683577967456	948.999534518316	638.981146486775	277.953690204719	1027.318468085055	558.053386235798	344.862231869800	1024.417965274183	489.112570095073	354.696042250248	997.613623819149	418.274221779381	343.711235502571	908.546132776252	305.144883833679	289.640677869327	956.290997603892	193.324024532065	361.796576707706	1064.529728222276	433.244898259168	575.481894102970	938.484719906407	398.266764058868	629.151700561555	922.959229558106	290.021257812612	578.633762474149	721.817518686665	236.381742227901	539.451067921218	885.175418492847	169.137025145060	585.813490997481	773.997217203217	171.545235913588	613.510520700403	944.839619547612	54.525473247691	612.718817985236	827.001950289232	37.664339758456	402.204760868279	899.987799060216	35.509281623222	319.962298348758	982.886588119808	96.223697462989	347.325736656003	1111.606076869956	45.137178693443	316.229269631023	975.548512271906	1088.513272294430	131.023384769321	1121.001675213451	870.694890398992	148.599968427585	923.941166927655	1109.664690879909	732.426188867625	1097.011544832316	917.662879171664	725.937684380219	
55	38.747857142857	777.376336724075	1020.954933268685	450.329856481261	1008.499323859545	1428.162982768859	269.814521484162	1092.418221501964	1352.344440737770	440.580444748228	1003.056800527286	1443.554573502085	603.390427008141	1008.965995262431	1492.988599426644	422.071076141770	991.025916957792	949.497187528263	586.483814919955	1001.254842825096	958.941830851974	311.680104528721	1074.998575707111	785.663746761059	556.495134983345	1038.080087391217	663.003407527456	627.402828949373	1130.754616443641	626.472484236001	550.689932566937	1152.143980426272	512.328944005351	572.688127287676	1038.278518544596	748.582506109505	340.723289667208	946.088423077156	638.831554723278	277.521683522905	1022.948378694537	557.032450185330	344.882159806972	1019.138829187063	488.222356078620	354.854985058632	992.087816092685	417.661449871416	343.715286989560	902.515318258962	305.018392375692	289.507756638964	949.248867228218	192.975618138263	361.911105608312	1075.124556773565	436.703264097743	575.925261158505	950.643490219631	396.756446163993	629.524310370656	939.308205299478	287.977481463992	578.920215156894	740.370759601429	226.527502778335	539.833833207676	906.251332053848	165.668336556212	586.102334529320	795.169188255190	163.710798289014	613.822767713149	970.387901860779	53.474593329526	612.633602700320	819.149323822579	37.644638466225	402.194640094789	892.186119209789	35.498104978734	319.964168771826	975.105314092154	96.161987970154	347.408011131609	1103.835429285366	44.990072016644	316.252515173832	982.823248721237	1089.562669136847	129.434813179878	1140.723803056776	880.914999683261	147.570768578277	916.611337457813	1109.083181191999	729.725897655332	1073.735152361576	902.785646876837	730.252781410689	
56	38.758928571429	776.999282089106	1020.927234405022	448.832863326954	1010.854661898439	1428.573482713637	270.303818277561	1093.032451829872	1352.000131314966	441.622287778028	1002.356156923490	1442.887414619161	603.874295152054	1009.909728767483	1492.916979473059	422.715794288002	990.168872634485	950.024446206855	586.223254583480	1001.970042001280	959.121218113640	311.189752622364	1076.516100491393	789.105968040611	556.434032021611	1041.836695707046	665.892753577033	627.728103888551	1135.266786381465	630.939095338733	551.304324131245	1159.209668902456	517.848392533600	573.562260687971	1036.461222193416	747.441167568031	340.939243513085	943.230325834886	638.657231861513	277.095652077789	1018.526062513916	555.979136594328	344.940488534252	1013.784480228776	487.315682947336	354.989688394558	986.506271951669	417.036064139519	343.703584566255	896.441627392212	304.876837537523	289.360719750914	942.149551040900	192.623039157525	362.014062262675	1085.126337037013	439.832474048289	576.635572845243	962.686592098588	394.317633639780	630.212765257141	956.140479129095	285.149266263428	579.520271494854	760.093153977054	214.955120825883	540.580571401642	928.528986757283	161.449516252763	586.752856384626	817.750113786416	154.528355600290	614.448798432963	997.624170050741	52.132048769009	612.895366160695	811.303396233644	37.630152026459	402.179040564316	884.384129148673	35.481365530384	319.964882434360	967.324915778700	96.098150420485	347.486881152296	1096.068129783466	44.838058796870	316.278766146159	989.703615764064	1090.621850855385	128.227922821606	1159.624898962823	891.996535610249	146.944149794947	910.012541368141	1108.443656752738	727.249158810447	1049.858266741240	889.313832322520	734.211358496359	
57	38.770000000000	776.764482277550	1020.799748386641	447.369093703764	1013.261553784589	1428.949908561655	270.931470934285	1093.735145053981	1351.582894385875	442.748748594337	1001.789245375795	1442.116146184089	604.503039550168	1010.875370995876	1492.781610510924	423.498314984030	989.389150887706	950.417353272903	586.031487908766	1002.797219709512	959.165499880086	310.776384852873	1077.829656191448	792.070615750794	556.697686427122	1044.858450064015	668.338612325965	628.217136183453	1139.013358757188	634.746789440781	552.210477501972	1165.182385697273	522.947904618151	574.710472363261	1034.634265621647	746.255765626589	341.335545726370	940.436896763636	638.454669971967	276.675973343054	1014.066968970744	554.892596852354	345.027579800738	1008.377454885561	486.396478125686	355.093483269358	980.884438171028	416.396082813304	343.675970171425	890.338636438903	304.721925548092	289.196023560014	935.000438356410	192.267207421077	362.104291900925	1094.445480073586	442.579002154292	577.565770004428	974.604690873597	391.013694889258	631.211711813898	973.386644857517	281.675469188447	580.435337974324	781.031132872244	201.945144957751	541.739341048626	951.894391711840	156.712290319350	587.755551044726	841.720913412042	144.304066704550	615.422338948714	1026.331743722684	50.809348438217	613.506882656260	803.469006203183	37.624734064406	402.152743006253	876.582475966595	35.460099708594	319.962198760250	959.548848709016	96.032411012896	347.559651279791	1088.304245223706	44.678124675328	316.306063698008	996.256591933179	1091.641835093867	127.397533562236	1177.631337159712	903.817947872295	146.723225002627	904.099573187165	1107.766545111309	725.032317051516	1025.686534822607	877.467759120940	737.704790066771	
